<svg xmlns="http://www.w3.org/2000/svg" version="1.1" xmlns:xlink="http://www.w3.org/1999/xlink" xmlns:svgjs="http://svgjs.com/svgjs" width="65.29" height="53.17"><svg id="SvgjsSvg1000" xmlns="http://www.w3.org/2000/svg" viewBox="0 0 65.29 53.17"><circle cx="24.67" cy="27.75" r="24.67" style="fill:#7a7f7e;"></circle><g><g><path d="M6.81,44.27c-.05-.92,.67-1.67,1.93-2.96,1.01-1.04,1.67-1.73,2.81-2.22,1.18-.51,2.14-.51,2.37-1.19,.16-.46-.21-.66-.07-1.26,.08-.36,.3-.64,1.41-1.56,.84-.69,1.25-1.04,1.41-1.11,.89-.43,1.23-.14,3.04-.59,.59-.15,.65-.2,.96-.22,.84-.05,1.21,.28,2.07,.52,.79,.22,1.39,.19,2.44,.15,.51-.02,1.28-.06,2.22-.3,1.47-.37,2.32-.98,2.52-.74,.17,.22-.41,.84-.22,1.04,.15,.17,.59-.21,1.26-.3,.55-.07,1.16,.2,2.37,.74,.89,.4,1.34,.61,1.7,.96,.3,.29,.8,.77,.89,1.48,.1,.72-.31,1.1-.07,1.41,.24,.31,.7,0,1.41,.15,1.03,.22,1,1.07,2.52,2.07,.74,.49,.94,.41,1.41,.89,.11,.11,.32,.34,.96,1.56,.49,.92,.73,1.39,.74,1.63,.02,.65-.46,1.15-1.63,2.15-1.53,1.31-2.29,1.96-3.85,2.96-1.23,.79-1.94,1.25-3.04,1.78-.84,.41-2.39,1.14-4.52,1.56-1.62,.32-2.81,.31-4.44,.3-1.14,0-2.89-.03-5.11-.44-1.49-.28-3.36-.63-5.56-1.7-.87-.43-.51-.34-5.56-4.15-1.62-1.22-2.32-1.73-2.37-2.59Z" style="fill:#004173;"></path><polygon points="12.13 38.77 12.8 40.11 14.95 41.88 17.1 43.07 20.28 44.11 14.73 40.48 13.84 37.96 12.13 38.77" style="fill:#043756;"></polygon><polygon points="29.32 44.11 31.61 43.51 33.47 42.62 34.87 42.03 36.21 41.03 37.02 40.03 37.76 38.85 36.13 37.96 34.95 39.73 33.54 41.03 29.76 43.59 29.32 44.11" style="fill:#043756;"></polygon></g><polygon points="17.61 42.25 17.61 51.88 19.02 52.36 19.02 43.25 17.61 42.25" style="fill:#fff;"></polygon><polygon points="30.8 43.18 30.8 50.96 31.24 51.48 32.02 51.48 32.32 51.07 32.32 42.48 31.84 42.48 30.8 43.18" style="fill:#fff;"></polygon></g><path d="M35.93,19.88c-.07,1.31-.44,3.25-1.06,5.11-.62,1.87-1.44,4.37-3.6,6.65-1.23,1.3-3.72,3.94-6.98,3.75-2.24-.13-3.78-1.54-6.01-3.59-1.03-.94-2.68-2.48-3.96-5.07,0,0-1.62-3.26-1.66-6.85-.07-6.38,4.82-15.51,11.64-15.51,6.96,0,11.97,9.51,11.64,15.51Z" style="fill:#edb06e;"></path><path d="M19.88,32.44c-.3,.17,.05,.74,.04,2.14,0,.83-.14,1.24-.04,2.22,.03,.3,.07,.54,.11,.75,.08,.39,.19,.87,.5,1.43,.09,.16,.29,.51,.65,.89,.14,.15,.48,.49,.99,.82,.61,.38,1.15,.55,1.34,.61,1.08,.31,1.98,.19,2.26,.14,.91-.15,1.54-.51,1.76-.64,.6-.37,.94-.77,1.38-1.29,.45-.53,.67-.8,.84-1.22,.19-.47,.19-.97,.19-1.97,0-.72-.03-.73-.04-1.36-.01-1.68,.22-2.18-.08-2.36-.31-.18-.7,.31-1.99,.71-.71,.22-1.27,.29-1.87,.36-1.03,.12-1.69,.2-2.52,.04-.97-.19-1.93-.65-2.29-.82-.75-.36-1.02-.58-1.22-.46Z" style="fill:#edb06e;"></path><path d="M13.77,16.21c.03,.1,.1,.33,.28,.39,.16,.06,.32-.06,.35-.07,.12-.09,.17-.21,.21-.31,.08-.21,.04-.31,.08-.67,.02-.2,.03-.14,.08-.52,.05-.4,.04-.41,.08-.65,.03-.18,.07-.34,.15-.65,.1-.38,.1-.35,.16-.59,.11-.45,.09-.52,.19-.93,.06-.26,.1-.4,.18-.58,.1-.25,.2-.35,.36-.61,.47-.75,.38-.77,.6-1,.3-.31,.43-.23,.7-.58,.13-.17,.15-.26,.34-.47,.16-.19,.19-.18,.39-.39,.14-.15,.24-.29,.44-.56,.17-.23,.19-.34,.34-.47,.02-.02,.14-.12,.31-.19,.42-.18,.9-.11,1.11-.08,.47,.06,.95,0,1.42,0,.89,0,.76-.03,1.68-.03,.91,0,1.07,.03,2.05,.03,.12,0,.26,0,.46,0,.13,0,.23,0,.27,0,.65,0,1.21,0,1.21,0,.56-.01,.84-.02,1.02-.05,.11-.02,.28-.06,.54-.07,.13,0,.15,0,.4-.02,.31-.02,.32-.03,.41-.02,.09,0,.28,.03,.44,.15,.15,.11,.15,.2,.34,.5,.14,.22,.27,.37,.34,.46,.17,.2,.3,.33,.55,.56,.18,.16,.33,.3,.54,.47,.58,.46,.76,.45,1.11,.83,.13,.15,.25,.31,.34,.42,.06,.08,.32,.43,.47,.69,.13,.23,.13,.35,.34,1.58,.11,.66,.13,.74,.18,1.11,.08,.53,.12,.8,.13,.94,.04,.53-.01,.76,.1,1.17,.06,.21,.12,.32,.23,.5,.15,.25,.22,.26,.23,.26,.02,0,.14,0,.29-.46,.16-.47,.15-.85,.17-1.43,.02-.65,.04-.5,.05-1.02,.02-.89-.04-.85,0-1.49,.02-.4,.06-.64,.06-1.16,0-.13,0-.3-.01-.52-.03-.5-.11-.87-.15-1.04-.4-1.9-.34-1.76-.44-2.11-.23-.78-.43-1.48-.93-2.25-.49-.74-1.07-1.27-1.32-1.5-.63-.57-.94-.85-1.04-.91-.24-.14-.52-.25-.57-.5-.02-.09,.01-.24,.07-.54,.04-.2,.06-.24,.07-.37,.03-.24,.04-.4-.03-.48-.02-.03-.08-.07-.6,.02-.38,.07-.57,.1-.71,.19-.14,.09-.22,.18-.29,.14-.08-.04-.09-.22-.09-.33,0-.35,.12-.51,.06-.59-.07-.08-.26-.01-.46,.06-.19,.07-.49,.18-.79,.47-.16,.16-.25,.3-.28,.28-.02-.01,.03-.13,.14-.37,.27-.61,.32-.7,.28-.77-.07-.12-.33-.07-.55-.03-.26,.05-.44,.13-.61,.21-.77,.35-.71,.36-.9,.43-.34,.12-.39,.05-.96,.17-.47,.09-.58,.17-.93,.25-.58,.14-.82,.08-1.55,.11-.82,.04-1.44,.16-1.86,.25-.71,.14-1.25,.25-1.92,.56-.84,.38-1.4,.85-1.81,1.19-.37,.31-.91,.77-1.45,1.53-.43,.6-.66,1.11-.91,1.64-.44,.96-.66,1.76-.78,2.19-.1,.36-.19,.7-.26,1.17-.09,.56-.1,1.01-.1,1.58,0,1.76,.11,1.57,.05,2.32-.06,.74-.25,1.92-.05,2.57Z"></path><g><path d="M15.61,14.99c.04-.19,.11-.31,.17-.39,.05-.07,.17-.16,.42-.36,.13-.1,.13-.1,.2-.16,.16-.14,.2-.18,.31-.28,.12-.1,.22-.18,.35-.26,.07-.04,.21-.11,.44-.17,.24-.06,.4-.06,.94-.06,.25,0,.51,0,.91,0,.49,0,.63,.01,.82,.06,.12,.03,.29,.09,.45,.14,.16,.06,.23,.09,.25,.1,.1,.05,.18,.1,.31,.19,.2,.13,.17,.12,.28,.19,.15,.08,.2,.09,.26,.17,.01,.02,.11,.14,.07,.22-.06,.13-.41,.05-1.07,.06-.34,0-.31,.03-.76,.04-.18,0-.36,0-.72,0-.46,0-.56,0-.74,.02-.16,.02-.21,.04-.52,.13-.79,.22-.73,.15-1.02,.26-.2,.08-.57,.24-.8,.35-.04,.02-.15,.07-.3,.11-.14,.04-.27,.05-.35,.06" style="fill:#3c270c;"></path><path d="M33.53,14.7c-.05-.19-.13-.31-.19-.38-.05-.06-.18-.16-.43-.34-.13-.1-.13-.1-.2-.15-.17-.13-.2-.17-.33-.26-.12-.09-.23-.17-.36-.24-.07-.04-.21-.1-.45-.14-.24-.04-.4-.04-.95,0-.25,.01-1.54,.1-1.72,.16-.11,.04-.29,.1-.44,.16-.15,.06-.22,.1-.24,.11-.1,.06-.17,.1-.31,.2-.2,.14-.16,.13-.27,.2-.14,.09-.2,.1-.25,.18-.01,.02-.1,.15-.06,.23,.06,.13,.41,.02,1.08,0,.34-.01,.31,.01,.76,0,.18,0,1.28-.07,1.46-.06,.16,.02,.21,.03,.52,.1,.8,.17,.74,.11,1.03,.21,.2,.07,.58,.21,.81,.31,.04,.02,.15,.06,.3,.1,.15,.03,.27,.04,.35,.04" style="fill:#3c270c;"></path><path d="M16.33,18.2s.01-.15,.39-.47c.15-.13,.17-.13,.39-.31,.31-.25,.3-.27,.42-.33,.16-.08,.3-.1,.58-.14,.27-.04,.48-.03,.64-.03,.3,0,.45,.01,.61,.06,.2,.05,.34,.15,.64,.33,.29,.18,.43,.27,.56,.42,.08,.09,.03,.06,.31,.47,.12,.18,.16,.23,.14,.28-.05,.1-.36,.03-.56-.03-.22-.07-.25-.13-.57-.29-.28-.15-.45-.23-.69-.28-.26-.05-.47-.02-.61,0-.15,.02-.29,.06-.56,.14-.22,.06-.33,.1-.47,.17-.12,.06-.24,.13-.33,.19-.22,.14-.24,.17-.33,.19-.04,0-.22,.05-.38-.07-.01,0-.17-.13-.17-.31Z" style="fill:#3c270c;"></path><path d="M32.62,18.2s-.01-.15-.39-.47c-.15-.13-.17-.13-.39-.31-.31-.25-.3-.27-.42-.33-.16-.08-.3-.1-.58-.14-.27-.04-.48-.03-.64-.03-.3,0-.45,.01-.61,.06-.2,.05-.34,.15-.64,.33-.29,.18-.43,.27-.56,.42-.08,.09-.03,.06-.31,.47-.12,.18-.16,.23-.14,.28,.05,.1,.36,.03,.56-.03,.22-.07,.25-.13,.57-.29,.28-.15,.45-.23,.69-.28,.26-.05,.47-.02,.61,0,.15,.02,.29,.06,.56,.14,.22,.06,.33,.1,.47,.17,.12,.06,.24,.13,.33,.19,.22,.14,.24,.17,.33,.19,.04,0,.22,.05,.38-.07,.01,0,.17-.13,.17-.31Z" style="fill:#3c270c;"></path><path d="M22.09,21.83c-.03,.08,.04,.21,.08,.28,.08,.15,.16,.16,.28,.31,.15,.18,.09,.24,.22,.39,.1,.11,.14,.09,.39,.25,.3,.19,.3,.27,.5,.36,.12,.06,.24,.07,.47,.11,.35,.06,.63,.06,.72,.06,.39,0,.59,0,.75-.08,.12-.06,.09-.08,.56-.5,.27-.25,.32-.27,.39-.39,.1-.17,.07-.23,.19-.5,.13-.29,.22-.32,.19-.39-.05-.17-.62-.11-1.53-.06-1.05,.06-1.58,.09-1.92,.08-.65-.02-1.23-.1-1.3,.09Z" style="fill:#e5ad76;"></path><g><path d="M20.81,26.6c-.11,.17,0,.47,.22,1.05,.02,.06,.12,.33,.34,.73,.23,.44,.34,.66,.48,.83,.38,.47,.9,.63,1.51,.81,.43,.13,.83,.25,1.37,.22,.68-.04,1.19-.29,1.56-.48,.36-.18,.61-.36,.72-.44,.15-.11,.41-.31,.68-.63,.2-.23,.42-.5,.56-.89,.07-.22,.31-.91,0-1.26-.12-.13-.3-.2-1.4-.19-.5,0-.78,.02-1.19,.04-1.01,.04-1.84,.04-2.11,.04-1.21,0-1.26,0-1.26,0-1.06-.01-1.36-.03-1.48,.16Z" style="fill:#4c4136;"></path><path d="M21.36,26.4c-.07,.14,.04,.37,.11,.47,.07,.1,.16,.16,.33,.28,.07,.04,.24,.16,.39,.22,.3,.13,.55,.06,.92,.03,.24-.02,.07,.01,1.14,.03,.96,.01,.76-.02,1.25,0,.15,0,.24,0,.25,0,.57,.02,.97-.09,.97-.09,.3-.08,.5-.2,.58-.25,.17-.11,.25-.19,.28-.22,.05-.06,.29-.33,.22-.47-.07-.15-.43-.07-1.21-.04-.74,.03-1.29,0-1.29,0,0,0,.63,0,.63,0,0,0-.61,0-1.45-.02-.08,0-.21,0-.48-.01-.63-.01-.94-.02-1.07-.03-1.23-.03-1.51-.08-1.59,.08Z" style="fill:#fff;"></path><path d="M21.91,29.21c0-.07,.17-.16,.49-.33,.29-.16,.43-.23,.58-.28,.15-.04,.33-.06,.68-.09,.25-.02,.3-.01,.35,0,.16,.07,.18,.19,.37,.26,.1,.03,.19,.03,.25,.02,.19-.01,.31-.1,.39-.14,.18-.1,.49-.11,1.12-.14,.18,0,.29,0,.42,.06,.09,.04,.15,.1,.28,.22,.1,.1,.16,.15,.19,.22,.01,.02,.08,.17,.05,.31-.04,.17-.24,.21-.72,.44-.37,.18-.34,.2-.56,.29-.07,.03-.36,.14-.75,.18-.52,.06-.93-.02-1.22-.08-.35-.08-.6-.17-.8-.25-.43-.17-1.14-.45-1.11-.69Z" style="fill:#ff4f6d;"></path></g></g><path d="M20.09,34.19c-.26,.18-.2,.85,.06,1.31,.07,.12,.28,.45,1.1,.8,.31,.13,.74,.27,2.15,.45,.89,.11,1.33,.17,1.87,.17,.94,0,1.65-.13,1.87-.17,.77-.15,1.23-.34,1.76-.57,.46-.19,.6-.29,.72-.45,.38-.52,.25-1.41-.06-1.53-.15-.06-.27,.11-.88,.45,0,0-.34,.19-.81,.41-.63,.29-1.05,.17-2.29,.18-1.42,.01-1.24,.17-1.97,.09-1.09-.11-2.01-.51-2.09-.55-.88-.39-1.2-.75-1.43-.59Z" style="fill:#dda46b;"></path><g><path d="M35.13,21.7c.19,.07,.6-.03,.63-.04,.08-.02,.25-.07,.44-.19,.25-.15,.4-.33,.56-.52,.17-.22,.32-.39,.41-.67,0-.03,.01-.05,.02-.06,.08-.28,.06-.5,.06-.57-.02-.33,.02-.72,.07-1.26,.02-.21,.04-.32,.04-.52,0-.2-.02-.28-.04-.56-.03-.42,0-.39-.04-.74-.03-.36-.04-.54-.11-.78-.04-.16-.05-.12-.22-.59-.16-.42-.15-.46-.22-.56-.17-.26-.4-.38-.52-.44-.08-.04-.68-.35-1-.14-.31,.2-.22,.8-.19,1.37,.02,.33-.04,1.63-.15,4.22-.04,.96-.11,1.9,.26,2.04Z" style="fill:#edb06e;"></path><path d="M13.55,14.04c-.2-.07-.61,.03-.65,.04-.09,.02-.26,.07-.46,.19-.26,.15-.41,.33-.57,.52-.18,.22-.33,.39-.42,.67-.03,.1-.04,.17-.08,.63-.06,.87-.03,.86-.08,1.26-.02,.19-.04,.31-.04,.52,0,.2,.02,.28,.04,.56,.03,.42,0,.39,.04,.74,.02,.29,.04,.5,.11,.78,.07,.29,.11,.43,.23,.59,.13,.18,.21,.17,.5,.44,.26,.24,.23,.28,.38,.41,.24,.2,.68,.41,.92,.3,.3-.15,.23-.78,.19-1.37-.02-.33,.04-1.63,.15-4.22,.04-.96,.11-1.9-.27-2.04Z" style="fill:#edb06e;"></path></g></svg><style>@media (prefers-color-scheme: light) { :root { filter: contrast(1) brightness(1); } }
</style></svg>